<?xml version="1.0" encoding="UTF-8"?>
<svg version="1.0" viewBox="0 0 460.7 359.83" xmlns="http://www.w3.org/2000/svg" xmlns:cc="http://creativecommons.org/ns#" xmlns:dc="http://purl.org/dc/elements/1.1/" xmlns:rdf="http://www.w3.org/1999/02/22-rdf-syntax-ns#">
<metadata>
<rdf:RDF>
<cc:Work rdf:about="">
<dc:format>image/svg+xml</dc:format>
<dc:type rdf:resource="http://purl.org/dc/dcmitype/StillImage"/>
</cc:Work>
</rdf:RDF>
</metadata>
<g transform="translate(-54.208 -212.34)">
<g transform="translate(4.8195 3.8556)">
<path d="m90.9 460.93h334.81" fill="none" stroke="gray" stroke-width="2"/>
<path d="m91.429 551.65v-323.57" fill="none" stroke="#333" stroke-width="2"/>
<path d="m75.235 246.88v-2.2324h-2.25v-1.541h2.25v-2.2324h1.5v2.2324h2.2559v1.541h-2.2559v2.2324h-1.5z"/>
<path d="m73.591 537.66v-1.7748h6.0974v1.7748h-6.0974z"/>
<text x="142.59641" y="269.50504" fill="#000000" font-family="DejaVu Sans Condensed" font-size="12px" stroke-width="1px" text-align="end" text-anchor="end" style="line-height:125%" xml:space="preserve"><tspan x="142.59641" y="269.50504">still</tspan></text>
<path d="m413.95 258.3h-2.2228c-0.62574-1.339-1.7865-2.3264-3.4824-2.9624-1.696-0.63601-3.6307-0.954-5.804-0.954-2.2064 0-4.9479 0.16068-8.2244 0.48202-3.2766 0.32135-6.1334 0.48203-8.5702 0.48203-2.2393 0-4.5198-0.27115-6.8413-0.81342-2.3216-0.54228-4.3057-1.3222-5.9522-2.3398-1.1526-0.70965-2.2393-1.841-3.2601-3.3942-1.2843 1.6603-2.5521 2.8654-3.8035 3.6152-1.6795 0.99081-3.6553 1.7339-5.9275 2.2294-2.2722 0.49539-4.4292 0.74309-6.4709 0.74311-1.9758-2e-5 -4.6103-0.16403-7.9033-0.49207-3.293-0.32805-6.158-0.49206-8.5949-0.49206-2.338 0-4.355 0.3046-6.051 0.91384-1.6959 0.60921-2.8732 1.6034-3.5318 2.9825h-2.3216v-0.70296c-0.03288-1.3657 0.74097-2.6612 2.3216-3.8863 1.5807-1.2252 3.6142-2.149 6.1004-2.7716 2.4863-0.62263 4.8984-0.93393 7.2365-0.93391 2.2722-2e-5 5.3841 0.20753 9.3358 0.62261 2.9308 0.30794 5.5488 0.46192 7.8539 0.46193 2.6015-1e-5 4.8161-0.33475 6.6437-1.0042 1.8276-0.66949 3.0049-1.6469 3.5318-2.9323h3.0132c0.52684 1.2854 1.7453 2.2628 3.6553 2.9323 1.9099 0.66946 4.2315 1.0042 6.9648 1.0042 2.2392-1e-5 4.7584-0.14729 7.5576-0.44185 3.9187-0.41508 6.8989-0.62262 8.9406-0.62261 2.1404-1e-5 4.3139 0.26107 6.5203 0.78329 2.2063 0.52217 4.001 1.1783 5.3841 1.9682 1.383 0.78999 2.3874 1.6536 3.0131 2.5909 0.49392 0.72303 0.79029 1.7005 0.88913 2.9323z"/>
<rect x="102.86" y="236.65" width="102.14" height="43.571" rx="5" ry="5" color="black" fill="none" stroke="gray" stroke-width="2"/>
<path d="m160.97 250.5h33.978" fill="none" stroke="#000" stroke-dasharray="4, 2" stroke-width="2"/>
<path d="m160.47 265.03h34.024" fill="none" stroke="#000" stroke-width="1px"/>
<path d="m120.47 416.11v36.124" fill="none" stroke="gray" stroke-width="1px"/>
<path d="m263.26 306.88v40.725" fill="none" stroke="gray" stroke-width="1px"/>
<path d="m354.25 287.63 40.213 71.225" fill="none" stroke="gray" stroke-width="1px"/>
<path d="m293.08 392.59v10.565m47.881 90.48h22.322" fill="none" stroke="gray" stroke-width="1px"/>
<path d="m346.24 549.18h21.47" fill="none" stroke="gray" stroke-width="1px"/>
<path d="m386.63 516.81 9.2014-9.2014" fill="none" stroke="gray" stroke-width="1px"/>
<path d="m396.34 490.23-13.802-13.802" fill="none" stroke="gray" stroke-width="1px"/>
<path d="m446.1 255.93-13.291-13.291" fill="none" stroke="gray" stroke-width="1px"/>
<path d="m92.306 460.12s63.393 1.6997 139.72-71.785c52.36-50.411 115.68-145.48 117.85 12.756 2.4167 176.41 25.559 142.42 28.264 139.56 4.1336-4.364 2.021-21.266 21.39-177.98 8.1196-65.697 22.244-101.82 28.093-125.71" fill="none" stroke="#000" stroke-dasharray="4, 2" stroke-width="2"/>
<path d="m91.924 459.91s56.078 1.7603 129.3-26.769c64.335-25.067 95.579-44.884 119.2 10.607 21.542 50.611 21.585 48.232 25.318 48.436 4.6475 0.25391 7.8835-6.9889 31.25-61.316 8.9125-20.721 23.739-34.598 30.305-40.154" fill="none" stroke="#000" stroke-width="2"/>
<text x="417.03494" y="479.19699" font-family="DejaVu Sans Condensed" font-size="8px" writing-mode="lr" style="line-height:125%" xml:space="preserve"><tspan x="417.03494" y="479.19699"><tspan x="417.03494" y="479.19699" font-family="DejaVu Sans Condensed" font-size="8px" writing-mode="lr" style="line-height:125%">100%</tspan></tspan></text>
<text x="256.79019" y="478.56097" font-family="DejaVu Sans Condensed" font-size="8px" writing-mode="lr" style="line-height:125%" xml:space="preserve"><tspan x="256.79019" y="478.56097"><tspan x="256.79019" y="478.56097" font-family="DejaVu Sans Condensed" font-size="8px" writing-mode="lr" style="line-height:125%">50%</tspan></tspan></text>
<text x="303.21875" y="552.75214" font-family="DejaVu Sans Condensed" font-size="12px" writing-mode="lr" style="line-height:125%" xml:space="preserve"><tspan x="303.21875" y="552.75214"><tspan x="303.21875" y="552.75214" font-family="DejaVu Sans Condensed" font-size="12px" writing-mode="lr" style="line-height:125%">zombie</tspan></tspan></text>
<text x="400.7009" y="500.97983" font-family="DejaVu Sans Condensed" font-size="12px" writing-mode="lr" style="line-height:125%" xml:space="preserve"><tspan x="400.7009" y="500.97983"><tspan x="400.7009" y="500.97983" font-family="DejaVu Sans Condensed" font-size="12px" writing-mode="lr" style="line-height:125%">prosthetic hand</tspan></tspan></text>
<text x="301.0625" y="497.02893" font-family="DejaVu Sans Condensed" font-size="12px" writing-mode="lr" style="line-height:125%" xml:space="preserve"><tspan x="301.0625" y="497.02893"><tspan x="301.0625" y="497.02893" font-family="DejaVu Sans Condensed" font-size="12px" writing-mode="lr" style="line-height:125%">corpse</tspan></tspan></text>
<text x="102.87054" y="479.16733" font-family="DejaVu Sans Condensed" font-size="12px" font-weight="bold" writing-mode="lr" style="line-height:125%" xml:space="preserve"><tspan x="102.87054" y="479.16733"><tspan x="102.87054" y="479.16733" font-family="DejaVu Sans Condensed" font-size="12px" font-weight="bold" writing-mode="lr" style="line-height:125%">human likeness</tspan></tspan></text>
<text x="100.70982" y="412.76553" font-family="DejaVu Sans Condensed" font-size="12px" writing-mode="lr" style="line-height:125%" xml:space="preserve"><tspan x="100.70982" y="412.76553"><tspan x="100.70982" y="412.76553" font-family="DejaVu Sans Condensed" font-size="12px" writing-mode="lr" style="line-height:125%">industrial robot</tspan></tspan></text>
<text x="256.41965" y="391.68967" font-family="DejaVu Sans Condensed" font-size="12px" writing-mode="lr" style="line-height:125%" xml:space="preserve"><tspan x="256.41965" y="391.68967"><tspan x="256.41965" y="391.68967" font-family="DejaVu Sans Condensed" font-size="12px" writing-mode="lr" style="line-height:125%">stuffed animal</tspan></tspan></text>
<text x="448.21875" y="269.18073" font-family="DejaVu Sans Condensed" font-size="12px" writing-mode="lr" style="line-height:125%" xml:space="preserve"><tspan x="448.21875" y="269.18073" font-family="DejaVu Sans Condensed" font-size="12px" writing-mode="lr"><tspan x="448.21875" y="269.18073" style="line-height:125%">healthy</tspan><tspan x="486.98438" y="269.18073" dx="0" style="line-height:125%"/></tspan><tspan x="448.21875" y="284.18073"><tspan x="448.21875" y="284.18073" font-family="DejaVu Sans Condensed" font-size="12px" writing-mode="lr" style="line-height:125%">person</tspan></tspan></text>
<text x="326.08035" y="239.19414" font-family="DejaVu Sans Condensed" font-size="12px" font-weight="bold" writing-mode="lr" style="line-height:125%" xml:space="preserve"><tspan x="326.08035" y="239.19414"><tspan x="326.08035" y="239.19414" font-family="DejaVu Sans Condensed" font-size="12px" font-weight="bold" writing-mode="lr" style="line-height:125%">uncanny valley</tspan></tspan></text>
<text x="312.14731" y="283.11377" font-family="DejaVu Sans Condensed" font-size="12px" writing-mode="lr" style="line-height:125%" xml:space="preserve"><tspan x="312.14731" y="283.11377"><tspan x="312.14731" y="283.11377" font-family="DejaVu Sans Condensed" font-size="12px" writing-mode="lr" style="line-height:125%">bunraku puppet</tspan></tspan></text>
<text x="220.34375" y="303.45303" font-family="DejaVu Sans Condensed" font-size="12px" writing-mode="lr" style="line-height:125%" xml:space="preserve"><tspan x="220.34375" y="303.45303"><tspan x="220.34375" y="303.45303" font-family="DejaVu Sans Condensed" font-size="12px" writing-mode="lr" style="line-height:125%">humanoid robot</tspan></tspan></text>
<text x="153.0759" y="253.81467" font-family="DejaVu Sans Condensed" font-size="12px" text-align="end" text-anchor="end" style="line-height:125%" xml:space="preserve"><tspan x="153.0759" y="253.81467"><tspan x="153.0759" y="253.81467" font-family="DejaVu Sans Condensed" font-size="12px" text-align="end" text-anchor="end" style="line-height:125%">moving</tspan></tspan></text>
<text transform="rotate(-90)" x="-447.13065" y="80.052422" font-family="DejaVu Sans Condensed" font-size="12px" writing-mode="lr" style="line-height:125%" xml:space="preserve"><tspan x="-447.13065" y="80.052422">familiarity<tspan x="-447.13065" y="80.052422" font-family="DejaVu Sans Condensed" font-size="12px" writing-mode="lr" style="line-height:125%"/></tspan></text>
</g>
</g>
</svg>
